<?xml version="1.0" encoding="utf-8"?>
<!-- Generator: Adobe Illustrator 16.0.0, SVG Export Plug-In . SVG Version: 6.00 Build 0)  -->
<!DOCTYPE svg PUBLIC "-//W3C//DTD SVG 1.1//EN" "http://www.w3.org/Graphics/SVG/1.1/DTD/svg11.dtd">
<svg version="1.1" id="Слой_1" xmlns="http://www.w3.org/2000/svg" xmlns:xlink="http://www.w3.org/1999/xlink" x="0px" y="0px"
	 width="107.098px" height="46.205px" viewBox="0 0 107.098 46.205" enable-background="new 0 0 107.098 46.205"
	 xml:space="preserve">
<g>
	<g>
		<g>
			<g>
				<g id="text">
					<g>
						<g>
							<g>
								<g>
									<defs>
										<rect id="SVGID_1_" width="107.098" height="46.205"/>
									</defs>
									<clipPath id="SVGID_2_">
										<use xlink:href="#SVGID_1_"  overflow="visible"/>
									</clipPath>
									<g clip-path="url(#SVGID_2_)">
										<g id="XMLID_3_" opacity="0.6">
											<g>
												<polygon fill="#FDC983" points="149.475,64.824 149.544,64.954 81.283,64.954 63.482,57.813 71.854,41.083 
													88.884,46.293 												"/>
												<polygon fill="#FFEEB1" points="124.834,18.503 149.475,64.824 88.884,46.293 124.113,17.654 												"/>
												<polygon fill="#FFE47C" points="130.943,3.043 124.305,17.503 123.943,17.464 101.254,-9.126 121.834,-17.957 
													140.584,-17.957 												"/>
												<polygon fill="#FBE76B" points="71.854,41.074 67.533,11.224 123.943,17.464 124.113,17.654 88.884,46.293 
													71.854,41.083 												"/>
												<polygon fill="#F7D43F" points="101.254,-9.126 123.943,17.464 67.533,11.224 67.493,10.914 73.264,2.884 												
													"/>
												<polygon fill="#FDC983" points="101.254,-9.126 73.264,2.884 88.243,-17.957 121.834,-17.957 												"/>
												<polygon fill="#FFC659" points="73.264,2.884 67.493,10.914 67.283,11.194 40.424,48.563 40.344,48.534 25.714,10.554 
													70.584,-17.957 88.243,-17.957 												"/>
												<polygon fill="#F0B01D" points="63.482,57.813 81.283,64.954 -0.996,64.954 -0.996,27.523 25.714,10.554 40.344,48.534 
													40.424,48.563 												"/>
												<polygon fill="#FADA57" points="71.854,41.074 71.854,41.083 63.482,57.813 40.424,48.563 67.283,11.194 67.533,11.224 
																									"/>
												<polygon fill="#F59120" points="25.714,10.554 -0.996,27.523 -0.996,-17.957 70.584,-17.957 												"/>
												<polygon fill="#F7D43F" points="67.493,10.914 67.533,11.224 67.283,11.194 												"/>
											</g>
										</g>
									</g>
								</g>
							</g>
						</g>
					</g>
				</g>
				<g id="Слой_4">
				</g>
				<g id="Слой_7" display="none">
				</g>
			</g>
		</g>
	</g>
</g>
</svg>
