<?xml version="1.0" encoding="utf-8"?>
<!-- Generator: Adobe Illustrator 16.0.0, SVG Export Plug-In . SVG Version: 6.00 Build 0)  -->
<!DOCTYPE svg PUBLIC "-//W3C//DTD SVG 1.1//EN" "http://www.w3.org/Graphics/SVG/1.1/DTD/svg11.dtd">
<svg version="1.1" id="Слой_1" xmlns="http://www.w3.org/2000/svg" xmlns:xlink="http://www.w3.org/1999/xlink" x="0px" y="0px"
	 width="107.098px" height="46.205px" viewBox="0 0 107.098 46.205" enable-background="new 0 0 107.098 46.205"
	 xml:space="preserve">
<g>
	<g>
		<g>
			<g>
				<g>
					<g>
						<g>
							<g>
								<g>
									<defs>
										<rect id="SVGID_1_" width="107.098" height="46.205"/>
									</defs>
									<clipPath id="SVGID_2_">
										<use xlink:href="#SVGID_1_"  overflow="visible"/>
									</clipPath>
									<g clip-path="url(#SVGID_2_)">
										<g id="XMLID_2_" opacity="0.6">
											<g>
												<polygon fill="#F69F88" points="-17.725,18.503 -42.435,64.954 -9.345,64.954 -9.345,62.364 18.045,45.484 
													10.995,14.384 -3.614,1.964 												"/>
												<polygon fill="#EE483B" points="18.865,-17.957 -27.055,-17.957 -3.614,1.964 -3.385,1.704 10.995,14.384 
													39.575,11.224 39.615,10.914 												"/>
												<polygon fill="#F69F88" points="18.045,45.484 -9.345,62.364 -9.345,64.954 24.545,64.954 43.775,56.364 36.245,34.264 
																									"/>
												<polygon fill="#F58F68" points="-3.614,1.964 10.995,14.384 -3.385,1.704 												"/>
												<polygon fill="#F58F68" points="10.995,14.384 18.045,45.484 36.245,34.264 39.575,11.224 												"/>
												<polygon fill="#ED302F" points="39.615,10.914 39.825,11.194 64.585,45.644 63.904,-0.556 36.525,-17.957 
													18.865,-17.957 												"/>
												<polygon fill="#EC1C24" points="43.775,56.364 24.545,64.954 108.105,64.954 108.105,27.523 63.904,-0.556 
													64.585,45.644 64.605,47.063 												"/>
												<polygon fill="#EE483B" points="39.575,11.224 36.245,34.264 43.775,56.364 64.605,47.063 64.585,45.644 39.825,11.194 
																									"/>
												<polygon fill="#D12026" points="63.904,-0.556 108.105,27.523 108.105,-17.957 36.525,-17.957 												"/>
												<polygon fill="#F7D43F" points="39.615,10.914 39.575,11.224 39.825,11.194 												"/>
											</g>
										</g>
									</g>
								</g>
							</g>
						</g>
						<g id="Слой_4">
						</g>
						<g id="Слой_7" display="none">
						</g>
					</g>
				</g>
			</g>
		</g>
	</g>
</g>
</svg>
