<?xml version="1.0" encoding="utf-8"?>
<!-- Generator: Adobe Illustrator 16.0.0, SVG Export Plug-In . SVG Version: 6.00 Build 0)  -->
<!DOCTYPE svg PUBLIC "-//W3C//DTD SVG 1.1//EN" "http://www.w3.org/Graphics/SVG/1.1/DTD/svg11.dtd">
<svg version="1.1" id="Слой_1" xmlns="http://www.w3.org/2000/svg" xmlns:xlink="http://www.w3.org/1999/xlink" x="0px" y="0px"
	 width="218.33px" height="82.91px" viewBox="0 0 218.33 82.91" enable-background="new 0 0 218.33 82.91" xml:space="preserve">
<g>
	<g>
		<g id="text">
			<g>
				<g>
					<g>
						<g id="XMLID_1_" opacity="0.6">
							<g>
								<polygon fill="#FFF0D3" points="218.33,0 189.101,25.69 198.229,1.09 201.88,0 								"/>
								<polygon fill="#FFEEB1" points="201.88,0 198.229,1.09 198.64,0 								"/>
								<polygon fill="#FFEEB1" points="167.88,10.21 131.94,21 141.58,0 198.64,0 198.229,1.09 								"/>
								<polygon fill="#FFF3C7" points="198.229,1.09 189.101,25.69 158.021,53 167.88,10.21 								"/>
								<polygon fill="#FFF0D3" points="125.83,36.46 125.3,35.46 131.94,21 167.88,10.21 158.021,53 151.12,82.91 150.89,82.91 
									150.47,82.78 								"/>
								<polygon fill="#FDC983" points="150.89,82.91 150.54,82.91 150.47,82.78 								"/>
								<polygon fill="#FDC983" points="150.47,82.78 150.54,82.91 82.28,82.91 64.48,75.77 72.85,59.04 89.88,64.25 								"/>
								<polygon fill="#FFEEB1" points="125.83,36.46 150.47,82.78 89.88,64.25 125.11,35.61 								"/>
								<polygon fill="#FFE47C" points="131.94,21 125.3,35.46 124.94,35.42 102.25,8.83 122.83,0 141.58,0 								"/>
								<polygon fill="#FFEEB1" points="125.3,35.46 125.83,36.46 125.11,35.61 								"/>
								<polygon fill="#FBE76B" points="72.85,59.04 68.53,29.18 124.94,35.42 125.11,35.61 89.88,64.25 								"/>
								<polygon fill="#F7D43F" points="102.25,8.83 124.94,35.42 68.53,29.18 68.49,28.87 74.26,20.84 								"/>
								<polygon fill="#FDC983" points="102.25,8.83 74.26,20.84 89.24,0 122.83,0 								"/>
								<polygon fill="#FFC659" points="68.28,29.15 41.42,66.52 41.34,66.49 26.71,28.51 71.58,0 89.24,0 74.26,20.84 68.49,28.87 
																	"/>
								<polygon fill="#F0B01D" points="64.48,75.77 82.28,82.91 0,82.91 0,45.48 26.71,28.51 41.34,66.49 41.42,66.52 								"/>
								<polygon fill="#FADA57" points="72.85,59.04 64.48,75.77 41.42,66.52 68.28,29.15 68.53,29.18 								"/>
								<polygon fill="#F59120" points="26.71,28.51 0,45.48 0,0 71.58,0 								"/>
								<polygon fill="#F7D43F" points="68.49,28.87 68.53,29.18 68.28,29.15 								"/>
							</g>
						</g>
					</g>
				</g>
			</g>
		</g>
		<g id="Слой_4">
		</g>
		<g id="Слой_7" display="none">
		</g>
	</g>
</g>
</svg>
