<?xml version="1.0" encoding="utf-8"?>
<!-- Generator: Adobe Illustrator 16.0.0, SVG Export Plug-In . SVG Version: 6.00 Build 0)  -->
<!DOCTYPE svg PUBLIC "-//W3C//DTD SVG 1.1//EN" "http://www.w3.org/Graphics/SVG/1.1/DTD/svg11.dtd">
<svg version="1.1" id="Слой_1" xmlns="http://www.w3.org/2000/svg" xmlns:xlink="http://www.w3.org/1999/xlink" x="0px" y="0px"
	 width="108.809px" height="45.313px" viewBox="0 0 108.809 45.313" enable-background="new 0 0 108.809 45.313"
	 xml:space="preserve">
<g id="text">
	<g>
		<g>
			<g>
				<path fill="#D41B34" d="M108.809,39.5c0.008,3.107-2.983,5.635-6.684,5.641l-74.759,0.173C23.667,45.32,0.009,26.641,0,22.803
					C-0.011,18.969,23.563,0.178,27.265,0.17L102.023,0c3.695-0.006,6.697,2.506,6.705,5.615L108.809,39.5z"/>
				<g enable-background="new    ">
					<path fill="#FFFFFF" d="M24.684,19.817c0.651-0.738,1.479-1.108,2.484-1.11c1.23-0.003,2.183,0.433,2.858,1.306
						c0.611,0.788,0.918,1.812,0.921,3.07c0.003,1.27-0.31,2.31-0.937,3.121c-0.702,0.888-1.667,1.332-2.893,1.335
						c-1.227,0.003-2.188-0.442-2.883-1.337c-0.642-0.819-0.964-1.859-0.967-3.118l-0.006-2.912
						c-0.007-2.837,1.281-4.259,3.862-4.265c0.437-0.001,0.794-0.048,1.071-0.14c0.277-0.093,0.543-0.254,0.799-0.48
						c0.383-0.337,0.681-0.506,0.895-0.506c0.384-0.001,0.577,0.193,0.578,0.582c0,0.324-0.239,0.666-0.72,1.023
						c-0.705,0.521-1.582,0.782-2.629,0.784C25.491,17.175,24.68,18.058,24.684,19.817z M27.115,26.275
						c0.859-0.002,1.492-0.337,1.898-1.007c0.342-0.553,0.513-1.28,0.511-2.182c-0.005-2.08-0.813-3.119-2.423-3.115
						c-0.837,0.002-1.465,0.333-1.882,0.991c-0.353,0.554-0.528,1.265-0.526,2.135C24.697,25.22,25.504,26.279,27.115,26.275z"/>
					<path fill="#FFFFFF" d="M36.002,26.255c0.866-0.002,1.678-0.299,2.436-0.889c0.214-0.169,0.396-0.253,0.545-0.254
						c0.385-0.001,0.578,0.201,0.579,0.606c0,0.128-0.095,0.299-0.287,0.514c-0.373,0.406-0.873,0.727-1.501,0.963
						c-0.576,0.215-1.162,0.322-1.759,0.323c-1.259,0.003-2.252-0.446-2.979-1.351c-0.685-0.839-1.029-1.897-1.032-3.175
						c-0.002-1.214,0.353-2.237,1.065-3.069c0.755-0.875,1.73-1.314,2.925-1.317c1.066-0.002,1.958,0.406,2.675,1.223
						c0.674,0.785,1.012,1.721,1.014,2.805c0.002,0.649-0.313,0.974-0.944,0.976l-5.31,0.012c0.001,0.721,0.251,1.341,0.75,1.859
						C34.678,25.998,35.285,26.257,36.002,26.255z M33.427,22.532l4.832-0.011c-0.002-0.737-0.186-1.349-0.552-1.833
						c-0.409-0.547-0.979-0.818-1.709-0.817c-0.73,0.002-1.342,0.264-1.834,0.787S33.425,21.806,33.427,22.532z"/>
					<path fill="#FFFFFF" d="M40.692,23.052c-0.003-1.203,0.336-2.231,1.017-3.084c0.723-0.918,1.671-1.378,2.845-1.381
						c0.48-0.001,0.96,0.078,1.44,0.235c0.641,0.209,0.961,0.499,0.962,0.869c0.001,0.401-0.175,0.604-0.528,0.604
						c-0.235,0-0.498-0.074-0.787-0.223c-0.29-0.149-0.632-0.223-1.028-0.222c-0.781,0.002-1.407,0.35-1.876,1.044
						c-0.416,0.619-0.623,1.335-0.621,2.146c0.002,0.907,0.191,1.647,0.567,2.224c0.44,0.682,1.089,1.021,1.945,1.019
						c0.342-0.001,0.728-0.105,1.155-0.314c0.428-0.209,0.673-0.313,0.738-0.313c0.406-0.001,0.61,0.206,0.611,0.622
						c0,0.256-0.159,0.485-0.479,0.689c-0.543,0.354-1.215,0.53-2.015,0.532c-1.259,0.003-2.241-0.432-2.947-1.303
						C41.028,25.378,40.695,24.33,40.692,23.052z"/>
					<path fill="#FFFFFF" d="M53.996,19.83l-4.208,0.01l0.016,6.915c0.001,0.488-0.241,0.732-0.726,0.734
						c-0.19,0-0.354-0.074-0.491-0.223c-0.137-0.148-0.207-0.319-0.207-0.511l-0.017-7.411c0-0.213,0.063-0.394,0.19-0.542
						c0.128-0.15,0.298-0.226,0.512-0.226l5.616-0.014c0.491-0.001,0.737,0.244,0.738,0.734l0.018,7.442
						c0.001,0.49-0.241,0.734-0.727,0.735c-0.19,0.001-0.354-0.073-0.491-0.222c-0.138-0.147-0.207-0.317-0.207-0.509L53.996,19.83z
						"/>
					<path fill="#FFFFFF" d="M59.802,18.632l3.664-0.008c0.405-0.001,0.608,0.265,0.609,0.799l0.017,7.296
						c0.001,0.202-0.065,0.376-0.196,0.521c-0.132,0.145-0.298,0.216-0.498,0.217c-0.211,0-0.385-0.073-0.522-0.223
						c-0.138-0.148-0.207-0.328-0.207-0.542l-0.016-6.801L60,19.896c-0.482,0.001-0.724,0.24-0.722,0.719l0.01,4.423
						c0.002,0.639-0.109,1.178-0.332,1.614c-0.287,0.544-0.724,0.815-1.311,0.816c-0.886,0.002-1.328-0.205-1.329-0.621
						c-0.001-0.362,0.195-0.564,0.591-0.608c0.479-0.044,0.765-0.146,0.854-0.307c0.091-0.159,0.136-0.474,0.134-0.943l-0.01-4.561
						C57.883,19.234,58.521,18.635,59.802,18.632z"/>
					<path fill="#FFFFFF" d="M71.916,19.692c-0.001-0.525,0.067-0.852,0.206-0.979c0.138-0.126,0.292-0.189,0.463-0.19
						c0.448-0.001,0.673,0.244,0.674,0.734l0.018,7.442c0.001,0.49-0.226,0.734-0.679,0.735c-0.184,0.001-0.34-0.058-0.47-0.175
						c-0.13-0.116-0.206-0.292-0.228-0.527c0.021,0.097,0.031-0.106,0.03-0.607c-0.631,0.876-1.423,1.314-2.377,1.316
						c-0.858,0.002-1.623-0.268-2.294-0.809c-0.671-0.542-1.131-1.232-1.38-2.073c-0.13-0.447-0.195-0.974-0.196-1.581
						c-0.002-0.713,0.104-1.347,0.317-1.9c0.309-0.757,0.752-1.359,1.33-1.808c0.61-0.492,1.312-0.739,2.105-0.74
						C70.412,18.527,71.238,18.915,71.916,19.692z M67.107,23.071c0.002,0.783,0.186,1.472,0.551,2.063
						c0.43,0.697,1.02,1.045,1.769,1.044c0.855-0.002,1.497-0.338,1.924-1.006c0.362-0.551,0.543-1.276,0.541-2.176
						c-0.002-0.879-0.181-1.604-0.535-2.175c-0.43-0.688-1.057-1.029-1.88-1.028c-0.804,0.002-1.418,0.363-1.845,1.085
						C67.28,21.483,67.105,22.214,67.107,23.071z"/>
					<path fill="#FFFFFF" d="M76.444,19.858l-1.456,0.003c-0.171,0.001-0.331-0.059-0.48-0.177s-0.225-0.265-0.225-0.438
						c-0.002-0.432,0.232-0.648,0.702-0.65l4.384-0.01c0.448-0.001,0.673,0.216,0.674,0.647c0.001,0.41-0.203,0.616-0.611,0.617
						l-1.563,0.004l0.016,6.865c0.001,0.213-0.073,0.383-0.22,0.511c-0.147,0.129-0.327,0.192-0.538,0.192
						c-0.443,0.002-0.665-0.242-0.666-0.732L76.444,19.858z"/>
					<path fill="#FFFFFF" d="M86.884,23.29l-4.352,0.011l0.008,3.378c0.001,0.489-0.241,0.733-0.727,0.734
						c-0.189,0.001-0.354-0.073-0.491-0.222c-0.137-0.148-0.206-0.319-0.206-0.511l-0.018-7.411c0-0.213,0.063-0.394,0.188-0.542
						c0.126-0.15,0.295-0.226,0.506-0.227c0.485-0.001,0.729,0.244,0.729,0.732l0.007,2.803l4.352-0.011l-0.006-2.771
						c-0.001-0.212,0.063-0.393,0.188-0.541s0.295-0.225,0.506-0.225c0.484-0.001,0.729,0.243,0.729,0.733l0.017,7.442
						c0.001,0.49-0.241,0.735-0.726,0.736c-0.19,0-0.354-0.073-0.491-0.222s-0.206-0.318-0.207-0.511L86.884,23.29z"/>
					<path fill="#FFFFFF" d="M93.646,27.387c-1.174,0.002-2.124-0.452-2.852-1.367c-0.663-0.839-0.996-1.86-0.999-3.063
						c-0.003-1.214,0.325-2.248,0.985-3.102c0.712-0.917,1.66-1.378,2.845-1.38c1.194-0.003,2.15,0.453,2.867,1.367
						c0.652,0.839,0.98,1.872,0.982,3.097c0.003,1.214-0.325,2.235-0.984,3.068C95.777,26.925,94.829,27.384,93.646,27.387z
						 M93.643,26.123c0.837-0.002,1.465-0.343,1.882-1.021c0.354-0.562,0.528-1.281,0.526-2.16
						c-0.002-0.848-0.186-1.567-0.553-2.159c-0.441-0.697-1.065-1.045-1.87-1.043c-0.827,0.002-1.454,0.347-1.883,1.036
						c-0.353,0.583-0.528,1.309-0.526,2.177s0.181,1.588,0.537,2.158C92.187,25.787,92.815,26.125,93.643,26.123z"/>
				</g>
				<circle fill="#FFFFFF" cx="10.442" cy="22.816" r="2.397"/>
			</g>
		</g>
	</g>
</g>
<g id="_x5F_dop" display="none">
</g>
<g id="Слой_4">
</g>
</svg>
